<svg width="6174" height="6157" viewBox="0 0 6174 6157" fill="none" xmlns="http://www.w3.org/2000/svg">
<ellipse cx="3083.59" cy="3079.08" rx="3027.09" ry="3027.08" fill="#301856"/>
<path fill-rule="evenodd" clip-rule="evenodd" d="M3051.74 75.8823C2839.98 75.8823 2644.06 105.078 2464.45 147.491C2286.35 189.603 2122.62 247.824 1974.3 317.816C1524.3 530.049 1171.11 836.353 903.177 1224.97C815.727 1351.8 734.839 1496.12 667.635 1649.9C534.747 1953.92 443.226 2309.74 443.226 2746.48C443.226 2957.5 474.338 3154.09 516.418 3332.15C558.759 3511.18 616.409 3672.33 686.739 3822.33C895.71 4268.04 1204.91 4630.17 1592.31 4895C1722.07 4983.71 1862.9 5063.08 2017.25 5130.58C2324.09 5264.67 2675.47 5354.96 3113.79 5354.96C3528.34 5354.96 3892.66 5249.04 4191.3 5113.04C4495.34 4974.63 4746.63 4785.29 4964.8 4567.17C5185.09 4346.83 5363.72 4086.53 5499.55 3782.55C5636.18 3476.64 5726.3 3121.8 5723.93 2686C5721.68 2268.57 5618.64 1909.05 5482.01 1608.53C5343.01 1302.66 5158.93 1057.84 4936.13 835.044C4717.18 616.082 4459.05 437.082 4151.48 300.291C3928.25 201.003 3667.04 121.928 3371.64 90.2115C3273.35 79.649 3156 71.074 3054.93 75.8823C3053.89 75.9532 3052.81 75.8823 3051.74 75.8823ZM3015.14 52.0032H3152C3152.34 53.2823 3153.35 53.8532 3155.2 53.6198C3636.13 65.7615 4033.02 179.107 4372.72 340.082C4884.09 582.415 5280.09 933.019 5588.64 1379.34C5691.22 1527.71 5783.14 1691.14 5857.64 1863.17C6010.97 2217.38 6110.72 2619.37 6110.68 3115.68C6110.68 3358.18 6075.93 3580.98 6027.93 3784.13C5884.97 4388.88 5586.47 4857.46 5214.64 5229.21C4963.43 5480.42 4669.47 5685.38 4323.38 5841.96C3979 5997.79 3569.47 6106.17 3081.98 6106.17C2594.55 6106.17 2186.53 5996.33 1842.18 5841.96C1495.41 5686.54 1202.25 5479 950.906 5227.63C702.718 4979.46 488.23 4688.5 331.83 4342.75C254.167 4171.16 186.396 3986.91 139.242 3782.55C92.1542 3578.48 56.5 3356.47 56.5 3112.52C56.5 2619 155.45 2214.31 311.113 1863.17C464.988 1516.14 668.31 1213.12 917.506 963.961C1169.46 712.007 1454.64 499.036 1796.03 338.499C2136.45 178.399 2533.73 66.6698 3015.14 52.0032Z" fill="white"/>
<path fill-rule="evenodd" clip-rule="evenodd" d="M4406.59 1390.06C4406.59 1019.14 4110.19 718.006 3745.09 718.006H2422.09C2057 718.006 1760.59 1019.14 1760.59 1390.06V4190.96C1760.59 4561.87 2057 4863.01 2422.09 4863.01H3745.09C4110.19 4863.01 4406.59 4561.87 4406.59 4190.96V1390.06ZM3083.59 4398.48C3184.13 4398.48 3265.76 4481.41 3265.76 4583.56C3265.76 4685.71 3184.13 4768.64 3083.59 4768.64C2983.05 4768.64 2901.42 4685.71 2901.42 4583.56C2901.42 4481.41 2983.05 4398.48 3083.59 4398.48ZM4198.88 1494.4C4198.88 1181.19 3948.58 926.906 3640.3 926.906H2523.12C2214.84 926.906 1964.54 1181.19 1964.54 1494.4V3741.2C1964.54 4054.41 2214.84 4308.69 2523.12 4308.69H3640.3C3948.58 4308.69 4198.88 4054.41 4198.88 3741.2V1494.4Z" fill="white"/>
<path fill-rule="evenodd" clip-rule="evenodd" d="M2770.01 1531.59C2769.14 1561.98 2771.8 1596.01 2768.7 1624.19C2752.25 1637.57 2732.23 1646.13 2713.73 1655.49C2621.06 1702.34 2525.75 1751.38 2430.88 1798.48C2393.1 1817.28 2356.43 1839.01 2316.95 1854.33C2317.84 1821.67 2315.16 1785.32 2318.29 1754.92C2330.65 1744.97 2345.85 1737.49 2359.85 1730.37C2459.64 1679.88 2564.51 1629.58 2664.12 1577.84C2550.6 1517.52 2431.96 1462.36 2316.95 1403.55V1300.06C2470.33 1374.82 2620.29 1453.07 2770.01 1531.59Z" fill="white"/>
<path fill-rule="evenodd" clip-rule="evenodd" d="M2858.88 1854.33H3309.17C3311.51 1879.05 3309.53 1908.16 3310.22 1934.59C3161.46 1936.33 3005.56 1936.33 2856.83 1934.59V1857.48C2856.78 1855.68 2857.6 1854.75 2858.88 1854.33Z" fill="white"/>
</svg>
