<svg width="6173" height="6157" viewBox="0 0 6173 6157" fill="none" xmlns="http://www.w3.org/2000/svg">
<path fill-rule="evenodd" clip-rule="evenodd" d="M3051.24 75.8721C2839.48 75.8721 2643.56 105.068 2463.95 147.48C2285.85 189.593 2122.12 247.814 1973.8 317.805C1523.8 530.039 1170.61 836.342 902.677 1224.95C815.227 1351.79 734.339 1496.11 667.135 1649.89C534.247 1953.91 442.726 2309.73 442.726 2746.47C442.726 2957.49 473.838 3154.08 515.918 3332.14C558.259 3511.17 615.909 3672.32 686.239 3822.32C895.21 4268.03 1204.41 4630.16 1591.81 4894.99C1721.57 4983.7 1862.4 5063.07 2016.75 5130.57C2323.59 5264.66 2674.97 5354.95 3113.29 5354.95C3527.84 5354.95 3892.16 5249.03 4190.8 5113.03C4494.84 4974.62 4746.13 4785.28 4964.3 4567.16C5184.59 4346.82 5363.22 4086.52 5499.05 3782.54C5635.68 3476.63 5725.8 3121.79 5723.43 2685.99C5721.18 2268.56 5618.14 1909.04 5481.51 1608.52C5342.51 1302.65 5158.43 1057.83 4935.63 835.034C4716.68 616.072 4458.55 437.072 4150.98 300.28C3927.75 200.993 3666.54 121.918 3371.14 90.2012C3272.85 79.6387 3155.5 71.0637 3054.43 75.8721C3053.39 75.9429 3052.31 75.8721 3051.24 75.8721ZM3014.64 51.9929H3151.5C3151.84 53.2721 3152.85 53.8429 3154.7 53.6096C3635.63 65.7512 4032.52 179.097 4372.22 340.072C4883.59 582.405 5279.59 933.009 5588.14 1379.33C5690.72 1527.7 5782.64 1691.13 5857.14 1863.16C6010.47 2217.37 6110.22 2619.36 6110.18 3115.67C6110.18 3358.17 6075.43 3580.97 6027.43 3784.12C5884.47 4388.87 5585.97 4857.45 5214.14 5229.2C4962.93 5480.41 4668.97 5685.36 4322.88 5841.95C3978.5 5997.78 3568.97 6106.16 3081.48 6106.16C2594.05 6106.16 2186.03 5996.32 1841.68 5841.95C1494.91 5686.53 1201.75 5478.99 950.406 5227.62C702.218 4979.45 487.73 4688.49 331.33 4342.74C253.667 4171.15 185.896 3986.9 138.742 3782.54C91.6542 3578.47 56 3356.46 56 3112.51C56 2618.99 154.95 2214.3 310.613 1863.16C464.488 1516.13 667.81 1213.11 917.006 963.951C1168.96 711.997 1454.14 499.026 1795.53 338.489C2135.95 178.389 2533.23 66.6596 3014.64 51.9929Z" fill="#231F20"/>
<path fill-rule="evenodd" clip-rule="evenodd" d="M4406.09 1390.05C4406.09 1019.13 4109.69 717.997 3744.59 717.997H2421.59C2056.5 717.997 1760.09 1019.13 1760.09 1390.05V4190.95C1760.09 4561.87 2056.5 4863 2421.59 4863H3744.59C4109.69 4863 4406.09 4561.87 4406.09 4190.95V1390.05ZM3083.09 4398.47C3183.63 4398.47 3265.26 4481.4 3265.26 4583.55C3265.26 4685.7 3183.63 4768.63 3083.09 4768.63C2982.55 4768.63 2900.92 4685.7 2900.92 4583.55C2900.92 4481.4 2982.55 4398.47 3083.09 4398.47ZM4198.38 1494.39C4198.38 1181.18 3948.08 926.896 3639.8 926.896H2522.62C2214.34 926.896 1964.04 1181.18 1964.04 1494.39V3741.19C1964.04 4054.4 2214.34 4308.68 2522.62 4308.68H3639.8C3948.08 4308.68 4198.38 4054.4 4198.38 3741.19V1494.39Z" fill="#231F20"/>
<path fill-rule="evenodd" clip-rule="evenodd" d="M2769.51 1531.58C2768.64 1561.97 2771.3 1596 2768.2 1624.18C2751.75 1637.56 2731.73 1646.12 2713.23 1655.48C2620.56 1702.34 2525.25 1751.37 2430.38 1798.47C2392.6 1817.27 2355.93 1839 2316.45 1854.32C2317.34 1821.66 2314.66 1785.31 2317.79 1754.91C2330.15 1744.96 2345.35 1737.48 2359.35 1730.37C2459.14 1679.88 2564.01 1629.57 2663.62 1577.84C2550.1 1517.51 2431.46 1462.36 2316.45 1403.54V1300.05C2469.83 1374.81 2619.79 1453.06 2769.51 1531.58Z" fill="#231F20"/>
<path fill-rule="evenodd" clip-rule="evenodd" d="M2858.38 1854.32H3308.67C3311.02 1879.04 3309.03 1908.15 3309.72 1934.58C3160.96 1936.32 3005.06 1936.32 2856.33 1934.58V1857.47C2856.28 1855.67 2857.11 1854.74 2858.38 1854.32Z" fill="#231F20"/>
</svg>
