<svg width="612" height="624" viewBox="0 0 612 624" fill="none" xmlns="http://www.w3.org/2000/svg">
<path d="M0 301C0 284.431 13.4315 271 30 271H581.074C597.643 271 611.074 284.431 611.074 301V624H0V301Z" fill="#D0C6DF"/>
<path d="M383.538 521.618H62.9713C55.4147 521.618 49.2015 515.573 49.2015 507.85C49.2015 500.294 55.2468 494.082 62.9713 494.082H383.538C391.094 494.082 397.307 500.126 397.307 507.85C397.139 515.573 391.094 521.618 383.538 521.618Z" fill="#011237"/>
<path d="M487.315 570.98H118.89C110.158 570.98 103.105 564.935 103.105 557.212C103.105 549.656 110.158 543.444 118.89 543.444H487.315C496.047 543.444 503.1 549.488 503.1 557.212C503.1 564.767 496.047 570.98 487.315 570.98Z" fill="#011237"/>
<path d="M546.424 520.273H429.549C422.496 520.273 416.619 514.229 416.619 506.505C416.619 498.95 422.328 492.737 429.549 492.737H546.424C553.477 492.737 559.354 498.782 559.354 506.505C559.354 514.061 553.645 520.273 546.424 520.273Z" fill="#011237"/>
<path d="M338.03 619H209.401C201.508 619 195.127 612.955 195.127 605.232C195.127 597.676 201.508 591.464 209.401 591.464H338.03C345.923 591.464 352.304 597.508 352.304 605.232C352.136 612.955 345.923 619 338.03 619Z" fill="#011237"/>
<path d="M485.971 326.514L422.664 382.089C419.474 384.776 419.809 389.813 423.336 392.163L547.6 475.443C552.805 478.969 559.522 473.428 557.003 467.551L496.047 328.696C494.368 324.667 489.33 323.659 485.971 326.514Z" fill="#011237"/>
<path d="M123.088 326.514L186.395 382.089C189.586 384.776 189.25 389.813 185.724 392.163L61.4601 475.443C56.2545 478.969 49.5375 473.428 52.0564 467.551L113.013 328.696C114.86 324.667 119.898 323.659 123.088 326.514Z" fill="#011237"/>
<path d="M133.667 309.892L301.759 448.915C304.278 450.93 307.301 452.273 310.491 452.441C317.544 452.944 328.963 451.433 328.459 436.322C327.619 415.838 228.712 156.597 217.965 128.39C217.126 126.375 216.118 124.36 214.943 122.513C211.248 117.14 201.509 113.614 194.624 125.871C186.563 139.975 143.071 252.301 128.63 289.576C125.607 296.963 127.79 305.023 133.667 309.892Z" fill="#011237"/>
<path d="M482.445 289.744C468.003 252.469 424.511 139.975 416.451 126.039C409.566 113.782 399.658 117.308 396.132 122.681C394.956 124.528 393.781 126.543 393.109 128.558C386.392 145.852 346.762 249.951 316.872 332.559L344.075 420.036L477.239 309.892C482.948 305.023 485.131 296.963 482.445 289.744Z" fill="#011237"/>
<path d="M55.9186 412.313C41.9809 379.572 34.0885 343.641 34.0885 305.863C34.0885 156.262 155.833 34.3652 305.621 34.3652C455.409 34.3652 577.154 156.094 577.154 305.863C577.154 344.145 569.093 380.579 554.652 413.656L572.62 453.785C596.969 409.962 611.074 359.424 611.074 305.863C610.906 137.457 473.881 0.448975 305.453 0.448975C137.026 0.448975 0 137.457 0 305.863C0 358.752 13.6018 408.451 37.2791 451.77L55.9186 412.313Z" fill="#011237"/>
</svg>
