<svg width="2326" height="619" viewBox="0 0 2326 619" fill="none" xmlns="http://www.w3.org/2000/svg">
<g clip-path="url(#clip0_12_2)">
<rect width="2326" height="619" fill="#D0C6DF"/>
<path d="M383.538 521.169H62.9713C55.4147 521.169 49.2015 515.124 49.2015 507.401C49.2015 499.845 55.2468 493.633 62.9713 493.633H383.538C391.094 493.633 397.307 499.677 397.307 507.401C397.139 515.124 391.094 521.169 383.538 521.169Z" fill="#011237"/>
<path d="M487.315 570.531H118.89C110.158 570.531 103.105 564.486 103.105 556.763C103.105 549.207 110.158 542.995 118.89 542.995H487.315C496.047 542.995 503.1 549.039 503.1 556.763C503.1 564.318 496.047 570.531 487.315 570.531Z" fill="#011237"/>
<path d="M546.424 519.824H429.549C422.496 519.824 416.619 513.78 416.619 506.056C416.619 498.501 422.328 492.288 429.549 492.288H546.424C553.477 492.288 559.354 498.333 559.354 506.056C559.354 513.612 553.645 519.824 546.424 519.824Z" fill="#011237"/>
<path d="M338.03 618.551H209.401C201.508 618.551 195.127 612.506 195.127 604.783C195.127 597.227 201.508 591.015 209.401 591.015H338.03C345.923 591.015 352.304 597.059 352.304 604.783C352.136 612.506 345.923 618.551 338.03 618.551Z" fill="#011237"/>
<path d="M399.322 618.551H387.568C378.5 618.551 371.111 612.506 371.111 604.783C371.111 597.227 378.5 591.015 387.568 591.015H399.322C408.39 591.015 415.779 597.059 415.779 604.783C415.611 612.506 408.39 618.551 399.322 618.551Z" fill="#011237"/>
<path d="M485.971 326.065L422.664 381.64C419.474 384.327 419.809 389.364 423.336 391.714L547.6 474.994C552.805 478.52 559.522 472.979 557.003 467.102L496.047 328.247C494.368 324.218 489.33 323.21 485.971 326.065Z" fill="#011237"/>
<path d="M123.088 326.065L186.395 381.64C189.586 384.327 189.25 389.364 185.724 391.714L61.4601 474.994C56.2545 478.52 49.5375 472.979 52.0564 467.102L113.013 328.247C114.86 324.218 119.898 323.21 123.088 326.065Z" fill="#011237"/>
<path d="M133.667 309.443L301.759 448.466C304.278 450.481 307.301 451.824 310.491 451.992C317.544 452.495 328.963 450.984 328.459 435.873C327.619 415.389 228.712 156.148 217.965 127.941C217.126 125.926 216.118 123.911 214.943 122.064C211.248 116.691 201.509 113.165 194.624 125.422C186.563 139.526 143.071 251.852 128.63 289.127C125.607 296.514 127.79 304.574 133.667 309.443Z" fill="#011237"/>
<path d="M482.445 289.295C468.003 252.02 424.511 139.526 416.451 125.59C409.566 113.333 399.658 116.859 396.132 122.232C394.956 124.079 393.781 126.094 393.109 128.109C386.392 145.403 346.762 249.502 316.872 332.11L344.075 419.587L477.239 309.443C482.948 304.574 485.131 296.514 482.445 289.295Z" fill="#011237"/>
<path d="M51.7207 207.191C76.6682 207.191 96.8921 186.969 96.8921 162.025C96.8921 137.081 76.6682 116.859 51.7207 116.859C26.7732 116.859 6.54919 137.081 6.54919 162.025C6.54919 186.969 26.7732 207.191 51.7207 207.191Z" fill="#011237"/>
<path d="M557.339 207.191C582.286 207.191 602.51 186.969 602.51 162.025C602.51 137.081 582.286 116.859 557.339 116.859C532.391 116.859 512.167 137.081 512.167 162.025C512.167 186.969 532.391 207.191 557.339 207.191Z" fill="#011237"/>
<path d="M55.9186 411.864C41.9809 379.123 34.0885 343.192 34.0885 305.414C34.0885 155.813 155.833 33.9162 305.621 33.9162C455.409 33.9162 577.154 155.645 577.154 305.414C577.154 343.696 569.093 380.13 554.652 413.207L572.62 453.336C596.969 409.513 611.074 358.975 611.074 305.414C610.906 137.008 473.881 0 305.453 0C137.026 0 0 137.008 0 305.414C0 358.303 13.6018 408.002 37.2791 451.321L55.9186 411.864Z" fill="#011237"/>
<path d="M774.128 272.841C778.998 272.841 783.364 270.994 786.89 267.468C790.417 263.942 792.264 259.744 792.264 254.875V164.712L830.383 232.88C832.062 235.734 834.413 238.085 837.267 239.764C840.122 241.443 843.145 242.283 846.503 242.283C849.862 242.283 853.052 241.443 855.907 239.764C858.762 238.085 861.113 235.902 862.624 233.216C868.837 221.631 875.218 210.381 881.431 199.132C887.645 187.882 894.194 176.633 900.743 165.048V255.043C900.743 260.08 902.422 264.446 905.948 267.804C909.475 271.162 913.673 273.009 918.878 273.009C923.58 273.009 927.778 271.162 931.473 267.636C934.999 264.11 936.846 259.912 936.846 255.043V102.42C936.846 100.07 936.342 97.7189 935.335 95.3683C934.327 93.1855 932.984 91.1707 931.305 89.4917C929.625 87.8127 927.778 86.4695 925.595 85.462C923.244 84.4546 920.893 83.9509 918.543 83.9509H913.505C910.314 83.9509 907.292 84.7904 904.437 86.6374C901.582 88.3164 899.231 90.667 897.72 93.5213L846.671 187.211C838.107 171.428 829.543 155.645 820.979 139.862C812.415 124.247 804.018 108.8 795.454 93.5213C793.775 90.667 791.592 88.3164 788.569 86.6374C785.547 84.7904 782.524 83.9509 779.334 83.9509H774.296C769.426 83.9509 765.228 85.7979 761.702 89.3238C758.175 92.8497 756.328 97.3831 756.328 102.42V254.875C756.328 259.912 758.007 264.278 761.534 267.636C765.06 270.994 769.09 272.841 774.128 272.841Z" fill="#011237"/>
<path d="M1008.89 272.84H1011.07C1015.43 272.84 1019.3 271.329 1022.82 268.139C1026.35 264.949 1028.03 260.919 1028.03 255.714V199.803H1115.85V255.714C1115.85 260.919 1117.53 264.949 1121.06 268.139C1124.58 271.329 1128.45 272.84 1132.81 272.84H1135C1139.36 272.84 1143.39 271.329 1146.75 268.139C1150.11 264.949 1151.96 260.919 1151.96 255.714V154.301C1151.96 148.425 1151.62 142.38 1150.95 136.336C1150.28 130.291 1148.77 124.415 1146.58 118.874C1144.4 113.333 1141.54 108.128 1137.85 103.259C1134.16 98.39 1129.45 94.1925 1123.41 90.6665C1117.53 87.1406 1110.31 84.2863 1101.91 82.2714C1093.52 80.2566 1083.61 79.0813 1072.02 79.0813C1060.44 79.0813 1050.53 80.0887 1042.13 82.2714C1033.74 84.2863 1026.52 87.1406 1020.64 90.6665C1014.76 94.1925 1009.89 98.39 1006.2 103.259C1002.5 108.128 999.649 113.333 997.466 118.874C995.283 124.415 993.94 130.124 993.1 136.336C992.261 142.548 992.093 148.425 992.093 154.301V255.882C992.093 261.087 993.772 265.117 997.298 268.307C1000.49 271.329 1004.52 272.84 1008.89 272.84ZM1028.03 154.301C1028.03 148.761 1028.7 143.556 1030.04 138.687C1031.39 133.817 1033.74 129.788 1037.1 126.262C1040.45 122.904 1044.99 120.217 1050.53 118.202C1056.07 116.188 1063.29 115.348 1071.86 115.348C1080.42 115.348 1087.47 116.356 1093.01 118.202C1098.56 120.049 1103.09 122.736 1106.45 126.262C1109.81 129.788 1112.16 133.817 1113.5 138.687C1114.84 143.556 1115.52 148.761 1115.52 154.301V163.704H1027.69V154.301H1028.03Z" fill="#011237"/>
<path d="M1356.32 97.8867C1350.61 93.0175 1344.23 89.4916 1337.01 87.1409C1329.79 84.7903 1322.4 83.615 1314.67 83.615H1225.67C1223.32 83.615 1220.97 84.1187 1218.79 85.1261C1216.61 86.1335 1214.59 87.4767 1212.91 89.1558C1211.23 90.8348 1209.89 92.8496 1208.88 95.0323C1207.87 97.2151 1207.37 99.5657 1207.37 102.084V255.882C1207.37 260.584 1209.05 264.445 1212.58 267.804C1216.1 271.162 1220.13 272.841 1224.5 272.841H1226.68C1231.55 272.841 1235.58 271.162 1238.77 267.804C1241.96 264.445 1243.64 260.416 1243.64 255.882V200.475H1298.22C1300.9 206.016 1303.59 211.388 1306.11 216.593C1308.63 221.798 1311.32 226.668 1313.83 231.537C1316.35 236.406 1318.87 241.443 1321.39 246.48C1323.91 251.517 1326.43 256.89 1329.12 262.431C1330.79 265.789 1332.98 268.307 1336 270.154C1339.02 272.001 1342.38 273.009 1345.91 273.009C1350.95 273.009 1355.14 271.162 1358.84 267.636C1362.53 264.11 1364.38 259.912 1364.38 255.043C1364.38 252.021 1363.71 249.334 1362.53 246.816L1337.51 198.124C1341.54 197.117 1345.74 195.27 1350.27 192.751C1354.81 190.065 1358.84 186.539 1362.36 182.006C1365.89 177.472 1368.91 171.931 1371.43 165.383C1373.95 158.835 1374.79 151.112 1374.79 142.045C1374.79 132.139 1373.11 123.408 1369.75 116.188C1366.39 108.8 1361.86 102.756 1356.32 97.8867ZM1332.31 158.163C1328.28 162.193 1322.4 164.208 1314.67 164.208H1243.64V120.05H1314.67C1317.53 120.05 1320.38 120.386 1323.24 121.225C1326.09 122.065 1328.61 123.408 1330.96 125.255C1333.31 127.102 1335.16 129.452 1336.5 132.307C1337.85 135.161 1338.52 138.351 1338.52 142.213C1338.35 148.761 1336.34 154.134 1332.31 158.163Z" fill="#011237"/>
<path d="M1447.17 83.447H1444.82C1442.63 83.447 1440.45 83.9507 1438.27 84.7902C1436.25 85.6298 1434.4 86.973 1432.89 88.4841C1431.38 89.9952 1430.21 91.8421 1429.2 93.857C1428.19 95.8718 1427.69 98.0545 1427.69 100.405V255.715C1427.69 260.416 1429.37 264.278 1432.89 267.636C1436.25 270.994 1440.28 272.673 1444.82 272.673H1447.17C1451.87 272.673 1455.73 270.994 1459.09 267.636C1462.45 264.278 1464.13 260.248 1464.13 255.715V100.573C1464.13 95.8718 1462.45 92.01 1459.09 88.652C1455.73 85.126 1451.7 83.447 1447.17 83.447Z" fill="#011237"/>
<path d="M1661.6 89.1557C1659.93 87.4767 1658.08 86.1335 1655.89 85.126C1653.71 83.9507 1651.36 83.447 1649.01 83.447H1526.76C1524.41 83.447 1522.06 83.9507 1519.88 84.9581C1517.69 85.9656 1515.68 87.3088 1514 88.9878C1512.32 90.6668 1510.98 92.6816 1509.97 94.8644C1508.96 97.0471 1508.46 99.3977 1508.46 101.916C1508.46 106.785 1510.31 111.151 1514 114.677C1517.69 118.203 1521.89 119.882 1526.76 119.882H1569.41V255.715C1569.41 260.92 1571.09 264.949 1574.62 268.139C1578.15 271.329 1582.01 272.841 1586.37 272.841H1588.73C1593.26 272.841 1597.12 271.329 1600.65 268.139C1604.17 264.949 1605.85 260.92 1605.85 255.715V120.05H1648.84C1653.71 120.05 1657.91 118.371 1661.6 114.845C1665.3 111.319 1667.15 107.121 1667.15 102.084C1667.15 99.7335 1666.64 97.3829 1665.63 95.0323C1664.63 92.6816 1663.28 90.8347 1661.6 89.1557Z" fill="#011237"/>
<path d="M1731.13 272.841C1735.83 272.841 1739.69 271.162 1743.05 267.804C1746.41 264.446 1748.09 260.416 1748.09 255.883V100.573C1748.09 95.8718 1746.41 92.0101 1743.05 88.6521C1739.69 85.294 1735.66 83.615 1731.13 83.615H1728.77C1726.59 83.615 1724.41 84.1187 1722.23 84.9582C1720.21 85.7977 1718.36 87.1409 1716.85 88.6521C1715.34 90.1632 1714.17 92.0101 1713.16 94.0249C1712.15 96.0397 1711.65 98.2225 1711.65 100.573V255.883C1711.65 260.584 1713.33 264.446 1716.85 267.804C1720.21 271.162 1724.24 272.841 1728.77 272.841H1731.13Z" fill="#011237"/>
<path d="M1985.36 89.6596C1983.68 87.9806 1981.84 86.6374 1979.65 85.6299C1977.47 84.4546 1975.29 83.9509 1972.77 83.9509H1967.73C1964.54 83.9509 1961.52 84.7904 1958.66 86.6374C1955.81 88.3164 1953.46 90.667 1951.94 93.5213L1900.9 187.211C1892.33 171.428 1883.77 155.645 1875.2 139.862C1866.64 124.247 1858.24 108.8 1849.68 93.5213C1848 90.667 1845.82 88.3164 1842.79 86.6374C1839.94 84.7904 1836.75 83.9509 1833.56 83.9509H1828.52C1823.65 83.9509 1819.45 85.7979 1815.93 89.3238C1812.4 92.8497 1810.55 97.2152 1810.55 102.42V254.875C1810.55 259.912 1812.23 264.278 1815.76 267.636C1819.28 270.994 1823.48 272.841 1828.52 272.841C1833.39 272.841 1837.76 270.994 1841.28 267.468C1844.81 263.942 1846.66 259.744 1846.66 254.875V164.712L1884.78 232.88C1886.45 235.734 1888.81 238.085 1891.66 239.764C1894.51 241.443 1897.54 242.283 1900.9 242.283C1904.25 242.283 1907.44 241.443 1910.3 239.764C1913.15 238.085 1915.51 235.902 1917.02 233.216C1923.23 221.631 1929.61 210.381 1935.82 199.132C1942.04 187.882 1948.59 176.633 1955.14 165.048V255.043C1955.14 260.08 1956.81 264.446 1960.34 267.804C1963.87 271.162 1968.07 273.009 1973.27 273.009C1977.97 273.009 1982.17 271.162 1985.87 267.636C1989.39 264.11 1991.24 259.912 1991.24 255.043V102.42C1991.24 100.07 1990.74 97.7189 1989.73 95.3683C1988.38 93.3534 1987.04 91.3386 1985.36 89.6596Z" fill="#011237"/>
<path d="M2194.43 239.931C2192.75 238.252 2190.73 236.909 2188.55 235.902C2186.37 234.894 2184.02 234.391 2181.66 234.391H2102.4C2099.05 234.391 2096.19 233.719 2093.67 232.544C2091.15 231.368 2089.14 229.857 2087.46 228.01C2085.78 226.163 2084.44 224.149 2083.6 221.966C2082.76 219.783 2082.25 217.433 2082.25 215.25C2082.25 213.067 2082.76 210.884 2083.6 208.534C2084.44 206.183 2085.78 204 2087.46 201.986C2089.14 199.971 2091.15 198.46 2093.67 197.116C2096.19 195.773 2099.05 195.269 2102.4 195.269H2167.73C2174.11 195.269 2178.98 193.423 2182.34 189.561C2185.69 185.867 2187.37 181.669 2187.37 176.968C2187.37 174.618 2186.87 172.267 2186.03 170.084C2185.19 167.901 2183.85 165.887 2182.17 164.04C2180.49 162.193 2178.47 160.85 2176.12 159.842C2173.77 158.835 2170.92 158.331 2167.73 158.331H2102.4C2099.05 158.331 2096.19 157.659 2093.67 156.484C2091.15 155.141 2089.14 153.63 2087.46 151.615C2085.78 149.6 2084.44 147.585 2083.6 145.235C2082.76 143.052 2082.25 140.869 2082.25 138.686C2082.25 136.504 2082.76 134.489 2083.6 132.138C2084.44 129.788 2085.78 127.773 2087.46 125.926C2089.14 124.247 2091.15 122.736 2093.67 121.56C2096.19 120.385 2099.05 119.714 2102.4 119.714H2181.66C2184.02 119.714 2186.37 119.21 2188.55 118.202C2190.73 117.195 2192.75 115.852 2194.43 114.173C2196.11 112.494 2197.45 110.479 2198.46 108.128C2199.46 105.778 2199.97 103.427 2199.8 101.076C2199.8 98.8937 2199.3 96.711 2198.29 94.5282C2197.28 92.3455 2195.94 90.4986 2194.26 88.8196C2192.58 87.1406 2190.73 85.7973 2188.55 84.7899C2186.37 83.7825 2184.02 83.2788 2181.66 83.2788H2102.4C2095.02 83.2788 2087.96 84.4541 2081.25 86.8048C2074.53 89.1554 2068.48 92.6813 2063.28 97.5505C2058.07 102.42 2054.04 108.128 2050.85 115.012C2047.83 121.896 2046.15 129.956 2046.15 139.022C2046.15 143.22 2046.65 147.082 2047.83 150.943C2049 154.637 2050.35 158.163 2052.2 161.353C2053.87 164.543 2055.89 167.566 2058.07 170.252C2060.26 172.939 2062.27 175.289 2064.12 177.472C2062.27 179.487 2060.09 181.837 2058.07 184.524C2055.89 187.21 2053.87 190.065 2052.2 193.255C2050.52 196.445 2049 199.971 2047.83 203.665C2046.65 207.358 2046.15 211.388 2046.15 215.586C2046.15 224.652 2047.66 232.712 2050.85 239.596C2053.87 246.48 2058.07 252.188 2063.28 256.89C2068.48 261.591 2074.36 265.117 2081.25 267.467C2087.96 269.818 2095.02 270.993 2102.4 270.993H2181.66C2186.53 270.993 2190.9 269.146 2194.43 265.453C2197.95 261.759 2199.8 257.561 2199.97 253.028C2200.14 250.677 2199.63 248.327 2198.62 246.144C2197.45 243.457 2196.11 241.61 2194.43 239.931Z" fill="#011237"/>
<path d="M915.184 364.515C906.116 356.12 895.537 349.404 883.446 344.703C871.356 340.002 858.929 337.651 845.831 337.651C832.565 337.651 819.971 340.002 808.048 344.703C796.126 349.404 785.547 355.952 776.479 364.515C767.411 372.91 760.19 383.152 754.817 395.241C749.443 407.33 746.756 420.595 746.756 435.034C746.756 449.474 749.443 462.906 754.817 474.827C760.19 486.748 767.411 496.99 776.479 505.553C785.547 514.116 796.126 520.664 808.048 525.365C819.971 530.067 832.565 532.417 845.831 532.417C858.929 532.417 871.524 530.067 883.446 525.365C895.369 520.664 905.948 514.116 915.184 505.553C924.252 497.158 931.472 486.748 936.846 474.827C942.22 462.906 944.906 449.642 944.906 435.202C944.906 420.595 942.22 407.33 936.846 395.409C931.472 383.32 924.252 373.078 915.184 364.515ZM903.765 458.54C900.574 465.928 896.208 472.476 890.667 478.017C885.126 483.558 878.409 487.923 870.852 491.281C863.295 494.639 854.899 496.15 845.831 496.15C836.763 496.15 828.367 494.471 820.811 491.281C813.254 488.091 806.537 483.558 800.996 478.017C795.454 472.476 791.088 466.096 787.898 458.54C784.707 451.153 783.196 443.261 783.196 435.202C783.196 426.807 784.707 419.083 787.898 411.696C791.088 404.308 795.454 397.928 800.996 392.387C802.507 390.876 804.354 389.701 805.866 388.357L845.999 438.056L885.461 388.189C887.141 389.533 888.988 390.876 890.667 392.387C896.208 397.928 900.574 404.308 903.765 411.696C906.956 419.083 908.467 426.975 908.467 435.202C908.467 443.261 906.956 451.153 903.765 458.54Z" fill="#011237"/>
<path d="M1143.06 357.295C1138.19 352.258 1132.31 348.396 1125.26 345.71C1118.2 343.024 1110.48 341.68 1101.91 341.68H1013.75C1011.4 341.68 1009.05 342.184 1006.87 343.192C1004.69 344.199 1002.67 345.542 1000.99 347.221C999.314 348.9 997.802 350.915 996.795 353.098C995.787 355.28 995.283 357.799 995.283 360.318V514.116C995.283 518.817 996.963 522.679 1000.49 526.037C1004.02 529.395 1008.05 531.074 1012.41 531.074H1014.59C1019.46 531.074 1023.49 529.395 1026.69 526.037C1029.88 522.679 1031.55 518.649 1031.55 514.116V458.708H1101.58C1110.14 458.708 1118.04 457.365 1124.92 454.678C1131.81 451.992 1137.85 448.13 1142.72 443.093C1147.59 438.056 1151.28 432.012 1153.97 424.792C1156.66 417.572 1158 409.513 1158 400.614C1158 391.715 1156.66 383.488 1153.97 376.268C1151.28 369.048 1147.93 362.332 1143.06 357.295ZM1121.56 408.002C1121.06 410.52 1120.05 412.871 1118.71 415.054C1117.36 417.236 1115.18 418.915 1112.49 420.259C1109.81 421.602 1106.28 422.105 1102.08 422.105H1031.72V377.947H1102.08C1106.45 377.947 1109.98 378.619 1112.49 379.794C1115.18 381.137 1117.2 382.816 1118.71 384.999C1120.22 387.182 1121.06 389.533 1121.56 392.219C1122.07 394.905 1122.23 397.424 1122.23 399.942C1122.4 402.797 1122.07 405.483 1121.56 408.002Z" fill="#011237"/>
<path d="M1335.33 347.221C1333.65 345.542 1331.8 344.199 1329.62 343.192C1327.44 342.184 1325.25 341.68 1322.73 341.68H1200.65C1198.3 341.68 1195.95 342.184 1193.77 343.192C1191.59 344.199 1189.57 345.542 1187.89 347.221C1186.21 348.9 1184.87 350.915 1183.86 353.098C1182.85 355.28 1182.35 357.631 1182.35 360.15C1182.35 365.019 1184.2 369.384 1187.89 372.91C1191.59 376.436 1195.78 378.115 1200.65 378.115H1243.31V513.948C1243.31 519.153 1244.99 523.183 1248.51 526.373C1252.04 529.563 1255.9 531.074 1260.27 531.074H1262.62C1267.15 531.074 1271.01 529.563 1274.54 526.373C1278.07 523.183 1279.75 519.153 1279.75 513.948V378.115H1322.73C1327.6 378.115 1331.8 376.436 1335.5 372.91C1339.19 369.384 1341.04 365.187 1341.04 360.15C1341.04 357.799 1340.53 355.448 1339.53 353.098C1338.52 350.747 1337.01 348.9 1335.33 347.221Z" fill="#011237"/>
<path d="M1404.85 341.512H1402.5C1400.32 341.512 1398.13 342.016 1395.95 342.855C1393.93 343.695 1392.09 345.038 1390.58 346.549C1389.06 348.06 1387.89 349.907 1386.88 351.922C1385.87 353.937 1385.37 356.12 1385.37 358.47V513.78C1385.37 518.481 1387.05 522.343 1390.58 525.701C1393.93 529.059 1397.96 530.738 1402.5 530.738H1404.85C1409.55 530.738 1413.41 529.059 1416.77 525.701C1420.13 522.343 1421.81 518.313 1421.81 513.78V358.47C1421.81 353.769 1420.13 349.907 1416.77 346.549C1413.58 343.191 1409.55 341.512 1404.85 341.512Z" fill="#011237"/>
<path d="M1659.25 347.725C1657.57 346.046 1655.73 344.703 1653.54 343.695C1651.36 342.688 1649.18 342.184 1646.66 342.184H1641.62C1638.43 342.184 1635.41 343.024 1632.55 344.871C1629.7 346.55 1627.35 348.9 1625.84 351.755L1574.79 445.444C1566.22 429.661 1557.66 413.878 1549.1 398.096C1540.53 382.481 1532.14 367.034 1523.57 351.755C1521.89 348.9 1519.71 346.55 1516.69 344.871C1513.66 343.024 1510.64 342.184 1507.45 342.184H1502.41C1497.54 342.184 1493.35 344.031 1489.82 347.557C1486.29 351.083 1484.45 355.449 1484.45 360.654V513.109C1484.45 518.146 1486.12 522.511 1489.65 525.869C1493.18 529.227 1497.38 531.074 1502.41 531.074C1507.28 531.074 1511.65 529.227 1515.18 525.701C1518.7 522.175 1520.55 517.978 1520.55 513.109V422.777L1558.67 490.946C1560.35 493.8 1562.7 496.15 1565.55 497.829C1568.41 499.509 1571.43 500.348 1574.79 500.348C1578.15 500.348 1581.34 499.509 1584.19 497.829C1587.05 496.15 1589.4 493.968 1590.91 491.281C1597.12 479.696 1603.5 468.447 1609.72 457.197C1615.93 445.948 1622.48 434.698 1629.03 423.113V513.109C1629.03 518.146 1630.71 522.511 1634.23 525.869C1637.76 529.227 1641.96 531.074 1647.16 531.074C1651.87 531.074 1656.06 529.227 1659.76 525.701C1663.28 522.175 1665.13 517.978 1665.13 513.109V360.654C1665.13 358.303 1664.63 355.952 1663.62 353.602C1662.28 351.251 1660.93 349.404 1659.25 347.725Z" fill="#011237"/>
<path d="M1874.53 376.94C1872.35 371.399 1869.49 366.194 1865.8 361.325C1862.11 356.455 1857.4 352.258 1851.36 348.732C1845.48 345.206 1838.26 342.352 1829.86 340.337C1821.47 338.322 1811.56 337.147 1799.97 337.147C1788.39 337.147 1778.48 338.154 1770.08 340.337C1761.69 342.352 1754.47 345.206 1748.59 348.732C1742.71 352.258 1737.84 356.455 1734.15 361.325C1730.45 366.194 1727.6 371.399 1725.42 376.94C1723.23 382.48 1721.89 388.189 1721.05 394.401C1720.21 400.614 1720.04 406.49 1720.04 412.367V513.948C1720.04 519.153 1721.72 523.182 1725.25 526.372C1728.61 529.562 1732.64 531.074 1737 531.074H1739.19C1743.55 531.074 1747.41 529.562 1750.94 526.372C1754.47 523.182 1756.15 519.153 1756.15 513.948V458.036H1843.97V513.948C1843.97 519.153 1845.65 523.182 1849.18 526.372C1852.7 529.562 1856.56 531.074 1860.93 531.074H1863.11C1867.48 531.074 1871.51 529.562 1874.87 526.372C1878.23 523.182 1880.07 519.153 1880.07 513.948V412.367C1880.07 406.49 1879.74 400.446 1879.07 394.401C1878.39 388.357 1876.72 382.48 1874.53 376.94ZM1843.97 421.601H1756.15V412.199C1756.15 406.658 1756.82 401.453 1758.16 396.584C1759.5 391.715 1761.86 387.685 1765.21 384.159C1768.57 380.801 1773.11 378.115 1778.65 376.1C1784.19 374.085 1791.41 373.246 1799.97 373.246C1808.54 373.246 1815.59 374.253 1821.13 376.1C1826.67 377.947 1831.21 380.633 1834.57 384.159C1837.92 387.685 1840.28 391.715 1841.62 396.584C1842.96 401.453 1843.63 406.658 1843.63 412.199V421.601H1843.97Z" fill="#011237"/>
<path d="M2322 137C2322 111.595 2301.41 91 2276 91C2250.59 91 2230 111.595 2230 137C2230 162.405 2250.59 183 2276 183C2301.41 183 2322 162.405 2322 137Z" stroke="#011237" stroke-width="8"/>
<path d="M2278.81 142.992H2265.45V166H2257.91V109.125H2276.74C2283.15 109.125 2288.07 110.583 2291.51 113.5C2294.97 116.417 2296.7 120.661 2296.7 126.234C2296.7 129.776 2295.74 132.862 2293.81 135.492C2291.91 138.122 2289.26 140.089 2285.84 141.391L2299.2 165.531V166H2291.16L2278.81 142.992ZM2265.45 136.859H2276.98C2280.7 136.859 2283.66 135.896 2285.84 133.969C2288.06 132.042 2289.16 129.464 2289.16 126.234C2289.16 122.719 2288.11 120.023 2286 118.148C2283.92 116.273 2280.9 115.323 2276.94 115.297H2265.45V136.859Z" fill="#011237"/>
</g>
<defs>
<clipPath id="clip0_12_2">
<rect width="2326" height="619" fill="white"/>
</clipPath>
</defs>
</svg>
