<svg width="612" height="624" viewBox="0 0 612 624" fill="none" xmlns="http://www.w3.org/2000/svg">
<ellipse cx="303.147" cy="245.5" rx="283.513" ry="224.5" fill="#301856"/>
<path d="M0.565514 301C0.565514 284.431 13.997 271 30.5655 271H581.75C598.319 271 611.75 284.431 611.75 301V624H0.565514V301Z" fill="#301856"/>
<path d="M52.2862 207.64C77.2337 207.64 97.4576 187.418 97.4576 162.474C97.4576 137.53 77.2337 117.308 52.2862 117.308C27.3387 117.308 7.1147 137.53 7.1147 162.474C7.1147 187.418 27.3387 207.64 52.2862 207.64Z" fill="white"/>
<path d="M557.905 207.64C582.852 207.64 603.076 187.418 603.076 162.474C603.076 137.53 582.852 117.308 557.905 117.308C532.957 117.308 512.733 137.53 512.733 162.474C512.733 187.418 532.957 207.64 557.905 207.64Z" fill="white"/>
<path d="M384.104 521.618H63.5368C55.9802 521.618 49.767 515.573 49.767 507.85C49.767 500.294 55.8123 494.082 63.5368 494.082H384.104C391.66 494.082 397.873 500.126 397.873 507.85C397.705 515.573 391.66 521.618 384.104 521.618Z" fill="white"/>
<path d="M487.881 570.98H119.456C110.724 570.98 103.671 564.935 103.671 557.212C103.671 549.656 110.724 543.444 119.456 543.444H487.881C496.613 543.444 503.666 549.488 503.666 557.212C503.666 564.767 496.613 570.98 487.881 570.98Z" fill="white"/>
<path d="M546.99 520.273H430.115C423.062 520.273 417.185 514.229 417.185 506.505C417.185 498.95 422.894 492.737 430.115 492.737H546.99C554.043 492.737 559.92 498.782 559.92 506.505C559.92 514.061 554.211 520.273 546.99 520.273Z" fill="white"/>
<path d="M338.596 619H209.967C202.074 619 195.693 612.955 195.693 605.232C195.693 597.676 202.074 591.464 209.967 591.464H338.596C346.489 591.464 352.869 597.508 352.869 605.232C352.701 612.955 346.489 619 338.596 619Z" fill="white"/>
<path d="M486.537 326.514L423.23 382.089C420.04 384.776 420.375 389.813 423.902 392.163L548.165 475.443C553.37 478.969 560.087 473.428 557.568 467.551L496.613 328.696C494.934 324.667 489.896 323.659 486.537 326.514Z" fill="white"/>
<path d="M123.654 326.514L186.961 382.089C190.152 384.776 189.816 389.813 186.29 392.163L62.0256 475.443C56.82 478.969 50.103 473.428 52.6219 467.551L113.579 328.696C115.426 324.667 120.464 323.659 123.654 326.514Z" fill="white"/>
<path d="M134.233 309.892L302.325 448.915C304.844 450.93 307.867 452.273 311.057 452.441C318.11 452.944 329.529 451.433 329.025 436.322C328.185 415.838 229.278 156.597 218.531 128.39C217.692 126.375 216.684 124.36 215.509 122.513C211.814 117.14 202.075 113.614 195.19 125.871C187.129 139.975 143.637 252.301 129.196 289.576C126.173 296.963 128.356 305.023 134.233 309.892Z" fill="white"/>
<path d="M483.011 289.744C468.569 252.469 425.077 139.975 417.017 126.039C410.132 113.782 400.224 117.308 396.698 122.681C395.522 124.528 394.347 126.543 393.675 128.558C386.958 145.852 347.328 249.951 317.438 332.559L344.641 420.036L477.805 309.892C483.514 305.023 485.697 296.963 483.011 289.744Z" fill="white"/>
<path d="M56.4841 412.313C42.5464 379.572 34.654 343.641 34.654 305.863C34.654 156.262 156.399 34.3652 306.187 34.3652C455.975 34.3652 577.72 156.094 577.72 305.863C577.72 344.145 569.658 380.579 555.217 413.656L573.186 453.785C597.535 409.962 611.639 359.424 611.639 305.863C611.471 137.457 474.447 0.448975 306.019 0.448975C137.592 0.448975 0.565514 137.457 0.565514 305.863C0.565514 358.752 14.1673 408.451 37.8446 451.77L56.4841 412.313Z" fill="white"/>
</svg>
