<svg width="118" height="159" viewBox="0 0 118 159" fill="none" xmlns="http://www.w3.org/2000/svg">
<path d="M88.2162 89.2168H29.3974V30.3847H88.2162V89.2168ZM88.2162 0.989937H29.3974C13.16 0.989937 0 14.1553 0 30.3847V89.2168C0 105.441 13.16 118.604 29.3974 118.604H88.2162C104.451 118.604 117.608 105.441 117.608 89.2168V30.3847C117.608 14.1553 104.451 0.989937 88.2162 0.989937Z" fill="white"/>
<path d="M58.6087 35.4692C45.2833 35.4692 34.4859 46.2799 34.4859 59.5999C34.4859 72.928 45.2833 83.7227 58.6087 83.7227C71.9314 83.7227 82.7314 72.928 82.7314 59.5999C82.7314 46.2799 71.9314 35.4692 58.6087 35.4692Z" fill="white"/>
<path d="M12.8 131.781L25.6456 150.456V136.087L25.6086 132.67H21.7481V131.781H30.027V132.67H26.834L26.7969 136.087V158.327L26.203 158.513L8.97606 133.451V153.575L9.01254 157.101H12.9842V157.992H4.40991V157.101H7.8248L7.86128 153.575V136.087L7.8248 132.67H4.40991V131.781H12.8Z" fill="white"/>
<path d="M55.6214 131.781V140.17H54.5073C54.3954 138.871 54.2465 137.239 53.0959 135.307C51.7598 133.043 49.9399 132.931 48.1583 132.857H46.0783L46.0424 136.198V153.313L46.0783 157.101H50.0894V157.992H37.9125V157.101H41.9206L41.9589 153.313V136.198L41.9206 132.857H40.2126C38.0596 132.894 36.4269 132.894 34.8672 135.381C33.6423 137.35 33.5305 138.909 33.4558 140.17H32.3799V131.781H55.6214Z" fill="white"/>
<path d="M66.2135 131.781L79.0591 150.456V136.087L79.0226 132.67H75.161V131.781H83.4398V132.67H80.2468L80.2092 136.087V158.327L79.6153 158.513L62.3883 133.451V153.575L62.426 157.101H66.4001V157.992H57.8222V157.101H61.2395L61.2741 153.575V136.087L61.2395 132.67H57.8222V131.781H66.2135Z" fill="white"/>
<path d="M97.8135 131.781V132.67H94.1367L94.1014 135.828V150.01C94.1367 153.685 94.2126 157.174 101.118 157.174C108.097 157.174 108.543 154.13 108.653 150.826V135.828L108.617 132.67H104.869V131.781H113.071V132.67H109.843L109.806 135.828V149.342C109.767 154.206 109.731 158.363 100.115 158.363C98.7435 158.363 95.4739 158.215 93.3963 157.36C90.0921 155.95 90.0179 153.054 89.9802 149.489V135.828L89.9425 132.67H86.7495V131.781H97.8135Z" fill="white"/>
</svg>
