<?xml version="1.0" encoding="UTF-8"?><svg id="Layer_1" xmlns="http://www.w3.org/2000/svg" viewBox="0 0 1000 450"><defs><style>.cls-1{fill:#0350f7;strokeWidth:0px;}</style></defs><path class="cls-1" d="M287.44,236.33c39.37-13.77,60.11-41.82,60.11-81.51,0-53.57-35.53-83.07-100.05-83.07H86.85v48.63h47.56v214.26h-48v48.63h141.03v-48.63h-34.82v-84.12h6.15c65.21,0,77.97,47.42,77.97,129.32v3.42h104.34v-48.63h-46.75c-2.81-45.2-19.32-79.7-46.88-98.31ZM238.8,201.89h-46.2v-81.51h46.63c33.25,0,50.11,13.05,50.11,38.8s-18.9,42.72-50.55,42.72Z"/><polygon class="cls-1" points="438.63 119.51 486.25 119.51 486.25 335.51 438.63 335.51 438.63 383.26 593.07 383.26 593.07 335.51 545.33 335.51 545.33 119.51 592.75 119.51 592.75 71.75 438.63 71.75 438.63 119.51"/><polygon class="cls-1" points="915.07 71.87 915.07 71.75 654.54 71.75 654.54 119.94 703.73 119.94 703.73 335.07 656.09 335.07 656.09 383.26 809.95 383.26 809.95 335.07 761.93 335.07 761.93 249.64 840.64 249.64 840.64 198.41 761.93 198.41 761.93 119.94 862.11 119.94 862.11 151.63 915.67 151.63 915.67 71.87 915.07 71.87"/></svg>