<?xml version="1.0" encoding="UTF-8"?><svg id="Layer_1" xmlns="http://www.w3.org/2000/svg" viewBox="0 0 1000 450"><defs><style>.cls-1{fill:#000030;stroke-width:0px;}</style></defs><path class="cls-1" d="M616.09,178.67l-9.83-16.78h-9.1v16.78h-7.29v-42.95h16.45c9.89,0,16.11,5.14,16.11,13.11,0,5.71-3.17,10-8.7,11.92l10.79,17.92h-8.42ZM597.16,141.99v13.68h9.32c5.26,0,8.42-2.49,8.42-6.84s-3.16-6.84-8.42-6.84h-9.32Z"/><path class="cls-1" d="M655.49,159.22v19.44h-7.01v-6.05c-1.92,4.01-4.52,6.73-10.34,6.73s-10.4-4.13-10.4-9.89c0-7.06,6.84-8.59,12.6-9.16l8.08-.85v-.51c0-3.56-2.03-6.44-6.27-6.44-3.79,0-5.88,2.26-6.27,4.8h-7.12c.73-5.99,5.93-9.78,13.39-9.78,9.38,0,13.34,5.48,13.34,11.7ZM648.42,165.72v-1.81l-5.48.56c-3.84.45-8.03,1.02-8.03,4.97,0,3.45,2.71,5.43,5.93,5.43,5.03,0,7.57-4.07,7.57-9.16ZM635.54,137.92c0-3.67,2.94-6.56,6.61-6.56s6.67,2.88,6.67,6.56-3,6.73-6.67,6.73-6.61-3.05-6.61-6.73ZM639.55,137.92c0,1.41,1.19,2.66,2.6,2.66s2.6-1.24,2.6-2.66-1.19-2.54-2.6-2.54-2.6,1.13-2.6,2.54Z"/><path class="cls-1" d="M684.71,135.71h7.01v42.95h-7.01v-6.5c-1.75,4.18-5.82,7.18-10.46,7.18-7.46,0-12.77-6.67-12.77-15.94s5.37-15.88,12.77-15.88c5.54,0,9.1,3.79,10.46,7.86v-19.67ZM684.94,163.41c0-6.67-2.88-10.91-8.14-10.91s-8.14,4.24-8.14,10.91,2.88,10.96,8.14,10.96,8.14-4.24,8.14-10.96Z"/><path class="cls-1" d="M721.39,148.2h7.01v30.24c0,8.65-7.35,11.98-14.41,11.98s-13.56-3.33-14.35-10.12h7.12c.62,3.39,3.62,5.14,7.23,5.14,4.13,0,7.4-2.2,7.4-6.84v-7.12c-1.7,4.13-5.82,6.95-10.46,6.95-7.46,0-12.77-6.16-12.77-15.48s5.37-15.43,12.77-15.43c5.54,0,9.1,3.67,10.46,7.69v-7.01ZM721.68,162.95c0-6.56-2.94-10.46-8.19-10.46s-8.08,3.9-8.08,10.46,2.88,10.51,8.08,10.51,8.19-3.9,8.19-10.51Z"/><path class="cls-1" d="M736.15,143.51v-7.8h7.4v7.8h-7.4ZM736.32,178.67v-30.46h7.06v30.46h-7.06Z"/><path class="cls-1" d="M773.11,148.2h7.12l-9.44,30.46h-13.22l-9.44-30.46h7.06l8.99,29.61,8.93-29.61Z"/><path class="cls-1" d="M812.45,165.5h-22.49c.57,5.88,3.56,8.87,7.86,8.87,3.9,0,5.88-1.75,6.95-4.69h7.18c-1.92,6.5-7.06,9.66-14.18,9.66-9.33,0-14.98-6.67-14.98-15.94s5.82-15.88,14.98-15.88,14.86,6.22,14.86,15.71c0,.68-.06,1.47-.17,2.26ZM790.01,160.58h15.37c-.34-4.86-3.28-8.08-7.63-8.08-4.13,0-7.01,2.6-7.74,8.08Z"/><path class="cls-1" d="M845.85,159.51v19.16h-7.06v-17.8c0-5.76-2.43-8.31-6.44-8.31s-6.44,2.6-6.44,8.42v17.69h-7.06v-30.46h7.01v6.22c1.41-3.73,4.41-6.89,9.66-6.89,7.01,0,10.34,5.2,10.34,11.98Z"/><path class="cls-1" d="M875.13,135.71h7.01v42.95h-7.01v-6.5c-1.75,4.18-5.82,7.18-10.46,7.18-7.46,0-12.77-6.67-12.77-15.94s5.37-15.88,12.77-15.88c5.54,0,9.1,3.79,10.46,7.86v-19.67ZM875.36,163.41c0-6.67-2.88-10.91-8.14-10.91s-8.14,4.24-8.14,10.91,2.88,10.96,8.14,10.96,8.14-4.24,8.14-10.96Z"/><path class="cls-1" d="M918.09,165.5h-22.49c.57,5.88,3.56,8.87,7.86,8.87,3.9,0,5.88-1.75,6.95-4.69h7.18c-1.92,6.5-7.06,9.66-14.18,9.66-9.33,0-14.98-6.67-14.98-15.94s5.82-15.88,14.98-15.88,14.86,6.22,14.86,15.71c0,.68-.06,1.47-.17,2.26ZM895.65,160.58h15.37c-.34-4.86-3.28-8.08-7.63-8.08-4.13,0-7.01,2.6-7.74,8.08Z"/><path class="cls-1" d="M589.87,243.26v-42.95h7.29v42.95h-7.29Z"/><path class="cls-1" d="M632.77,224.1v19.16h-7.06v-17.8c0-5.76-2.43-8.31-6.44-8.31s-6.44,2.6-6.44,8.42v17.69h-7.06v-30.46h7.01v6.22c1.41-3.73,4.41-6.89,9.66-6.89,7.01,0,10.34,5.2,10.34,11.98Z"/><path class="cls-1" d="M662.16,212.8h7.01v30.24c0,8.65-7.35,11.98-14.41,11.98s-13.56-3.33-14.35-10.12h7.12c.62,3.39,3.62,5.14,7.23,5.14,4.13,0,7.4-2.2,7.4-6.84v-7.12c-1.7,4.13-5.82,6.95-10.46,6.95-7.46,0-12.77-6.16-12.77-15.48s5.37-15.43,12.77-15.43c5.54,0,9.1,3.67,10.46,7.69v-7.01ZM662.44,227.55c0-6.56-2.94-10.46-8.19-10.46s-8.08,3.9-8.08,10.46,2.88,10.51,8.08,10.51,8.19-3.9,8.19-10.51Z"/><path class="cls-1" d="M705,230.09h-22.49c.57,5.88,3.56,8.87,7.86,8.87,3.9,0,5.88-1.75,6.95-4.69h7.18c-1.92,6.5-7.06,9.66-14.18,9.66-9.33,0-14.98-6.67-14.98-15.94s5.82-15.88,14.98-15.88,14.86,6.22,14.86,15.71c0,.68-.06,1.47-.17,2.26ZM682.56,225.18h15.37c-.34-4.86-3.28-8.08-7.63-8.08-4.13,0-7.01,2.6-7.74,8.08Z"/><path class="cls-1" d="M711.22,208.11v-7.8h7.4v7.8h-7.4ZM711.39,243.26v-30.46h7.06v30.46h-7.06Z"/><path class="cls-1" d="M758.36,212.8l-5.48,5.71c1.7,2.6,2.6,5.82,2.6,9.49,0,9.44-5.93,15.94-15.37,15.94-3.5,0-6.56-.9-8.99-2.54l-1.81,1.87h-7.4l5.48-5.71c-1.7-2.6-2.6-5.88-2.6-9.55,0-9.38,5.93-15.88,15.32-15.88,3.56,0,6.61.9,9.04,2.6l1.81-1.92h7.4ZM732.41,232.24l12.72-13.34c-1.3-1.19-3-1.81-5.03-1.81-5.2,0-8.14,4.24-8.14,10.91,0,1.53.17,2.94.45,4.24ZM747.79,223.88l-12.66,13.28c1.3,1.19,2.94,1.81,4.97,1.81,5.26,0,8.14-4.24,8.14-10.96,0-1.53-.17-2.88-.45-4.13Z"/><path class="cls-1" d="M768.7,220.2c1.19-4.58,4.24-8.08,10.12-8.08v6.95h-1.92c-5.48,0-8.14,1.81-8.14,7.12v17.07h-7.06v-30.46h7.01v7.4Z"/><path class="cls-1" d="M811.26,230.09h-22.49c.57,5.88,3.56,8.87,7.86,8.87,3.9,0,5.88-1.75,6.95-4.69h7.18c-1.92,6.5-7.06,9.66-14.18,9.66-9.33,0-14.98-6.67-14.98-15.94s5.82-15.88,14.98-15.88,14.86,6.22,14.86,15.71c0,.68-.06,1.47-.17,2.26ZM788.82,225.18h15.37c-.34-4.86-3.28-8.08-7.63-8.08-4.13,0-7.01,2.6-7.74,8.08Z"/><path class="cls-1" d="M824.66,220.2c1.19-4.58,4.24-8.08,10.12-8.08v6.95h-1.92c-5.48,0-8.14,1.81-8.14,7.12v17.07h-7.06v-30.46h7.01v7.4Z"/><path class="cls-1" d="M837.83,234.22h7.12c.73,3.67,3.67,4.75,6.56,4.75,4.29,0,6.56-1.53,6.56-3.9s-1.41-3.45-5.82-4.35l-4.8-1.07c-5.54-1.19-8.93-3.73-8.93-8.36,0-5.6,5.65-9.16,12.6-9.16,6.44,0,11.87,2.83,13.17,8.48h-7.12c-.79-2.26-3.28-3.5-5.99-3.5-3.05,0-5.82,1.3-5.82,3.62,0,2.09,1.87,2.83,5.54,3.62l4.8,1.02c6.39,1.36,9.16,4.18,9.16,9.04,0,6.05-5.71,9.55-13.51,9.55-7.12,0-12.6-3.28-13.51-9.72Z"/><path class="cls-1" d="M618.01,271.18h-20.85v12.15h20.51v6.22h-20.51v18.31h-7.29v-42.95h28.14v6.27Z"/><path class="cls-1" d="M622.31,292.6c0-9.38,5.93-15.88,15.32-15.88s15.37,6.5,15.37,15.88-5.93,15.94-15.37,15.94-15.32-6.5-15.32-15.94ZM645.77,292.6c0-6.67-2.88-10.91-8.14-10.91s-8.14,4.24-8.14,10.91,2.94,10.96,8.14,10.96,8.14-4.24,8.14-10.96Z"/><path class="cls-1" d="M666.23,284.8c1.19-4.58,4.24-8.08,10.12-8.08v6.95h-1.92c-5.48,0-8.14,1.81-8.14,7.12v17.07h-7.06v-30.46h7.01v7.4Z"/><path class="cls-1" d="M708.79,294.69h-22.49c.57,5.88,3.56,8.87,7.86,8.87,3.9,0,5.88-1.75,6.95-4.69h7.18c-1.92,6.5-7.06,9.66-14.18,9.66-9.33,0-14.98-6.67-14.98-15.94s5.82-15.88,14.98-15.88,14.86,6.22,14.86,15.71c0,.68-.06,1.47-.17,2.26ZM686.35,289.77h15.37c-.34-4.86-3.28-8.08-7.63-8.08-4.13,0-7.01,2.6-7.74,8.08Z"/><path class="cls-1" d="M742.19,288.7v19.16h-7.06v-17.8c0-5.76-2.43-8.31-6.44-8.31s-6.44,2.6-6.44,8.42v17.69h-7.06v-30.46h7.01v6.22c1.41-3.73,4.41-6.89,9.66-6.89,7.01,0,10.34,5.2,10.34,11.98Z"/><path class="cls-1" d="M749.77,272.71v-7.8h7.4v7.8h-7.4ZM749.94,307.86v-30.46h7.06v30.46h-7.06Z"/><path class="cls-1" d="M792.1,288.7v19.16h-7.06v-17.8c0-5.76-2.43-8.31-6.44-8.31s-6.44,2.6-6.44,8.42v17.69h-7.06v-30.46h7.01v6.22c1.41-3.73,4.41-6.89,9.66-6.89,7.01,0,10.34,5.2,10.34,11.98Z"/><path class="cls-1" d="M821.49,277.4h7.01v30.24c0,8.65-7.35,11.98-14.41,11.98s-13.56-3.33-14.35-10.12h7.12c.62,3.39,3.62,5.14,7.23,5.14,4.13,0,7.4-2.2,7.4-6.84v-7.12c-1.7,4.13-5.82,6.95-10.46,6.95-7.46,0-12.77-6.16-12.77-15.48s5.37-15.43,12.77-15.43c5.54,0,9.1,3.67,10.46,7.69v-7.01ZM821.77,292.15c0-6.56-2.94-10.46-8.19-10.46s-8.08,3.9-8.08,10.46,2.88,10.51,8.08,10.51,8.19-3.9,8.19-10.51Z"/><path class="cls-1" d="M192.5,226.71c21.75-7.61,33.21-23.1,33.21-45.03,0-29.59-19.63-45.89-55.27-45.89h-88.75v26.86h26.27v118.36h-26.52v26.86h77.9v-26.86h-19.23v-46.47h3.4c36.02,0,43.07,26.19,43.07,71.44v1.89h57.64v-26.86h-25.83c-1.55-24.97-10.67-44.03-25.89-54.31ZM165.63,207.68h-25.52v-45.03h25.76c18.37,0,27.68,7.21,27.68,21.43s-10.44,23.6-27.92,23.6Z"/><polygon class="cls-1" points="276.02 162.18 302.32 162.18 302.32 281.5 276.02 281.5 276.02 307.88 361.33 307.88 361.33 281.5 334.96 281.5 334.96 162.18 361.15 162.18 361.15 135.79 276.02 135.79 276.02 162.18"/><polygon class="cls-1" points="539.21 135.86 539.21 135.79 395.29 135.79 395.29 162.42 422.46 162.42 422.46 281.26 396.14 281.26 396.14 307.88 481.14 307.88 481.14 281.26 454.61 281.26 454.61 234.07 498.09 234.07 498.09 205.76 454.61 205.76 454.61 162.42 509.95 162.42 509.95 179.92 539.54 179.92 539.54 135.86 539.21 135.86"/></svg>